<?xml version="1.0" encoding="UTF-8" standalone="no"?>
<svg
   xmlns:dc="http://purl.org/dc/elements/1.1/"
   xmlns:cc="http://creativecommons.org/ns#"
   xmlns:rdf="http://www.w3.org/1999/02/22-rdf-syntax-ns#"
   xmlns:svg="http://www.w3.org/2000/svg"
   xmlns="http://www.w3.org/2000/svg"
   viewBox="0 0 2560 1440"
   height="1440"
   width="2560"
   xml:space="preserve"
   id="svg2"
   version="1.1"><metadata
     id="metadata8"><rdf:RDF><cc:Work
         rdf:about=""><dc:format>image/svg+xml</dc:format><dc:type
           rdf:resource="http://purl.org/dc/dcmitype/StillImage" /></cc:Work></rdf:RDF></metadata><defs
     id="defs6"><clipPath
       id="clipPath18"
       clipPathUnits="userSpaceOnUse"><path
         id="path16"
         d="M 0,1080 H 1920 V 0 H 0 Z" /></clipPath><clipPath
       id="clipPath58"
       clipPathUnits="userSpaceOnUse"><path
         id="path56"
         d="m 413.06,905.437 c -35.125,-70.74 -22.161,-95.372 -57.285,-166.113 v 0 C 310.614,648.373 216.481,627.927 172.436,539.221 v 0 C 118.913,431.427 119.892,281.173 119.892,281.173 v 0 c 0,0 10.237,-30.122 38.309,-44.06 v 0 l -0.373,-0.126 c 28.071,-13.938 58.256,-3.886 58.256,-3.886 v 0 c 0,0 120.29,90.039 173.813,197.833 v 0 c 44.045,88.706 3.435,176.055 48.596,267.007 v 0 c 35.124,70.74 62.584,75.302 97.708,146.042 v 0 c 35.124,70.74 -25.42,101.813 -25.42,101.813 v 0 c 0,0 -13.366,6.485 -31.208,6.486 v 0 c -20.774,10e-4 -47.617,-8.79 -66.513,-46.845" /></clipPath><clipPath
       id="clipPath74"
       clipPathUnits="userSpaceOnUse"><path
         id="path72"
         d="M 0,1080 H 1920 V 0 H 0 Z" /></clipPath><clipPath
       id="clipPath90"
       clipPathUnits="userSpaceOnUse"><path
         id="path88"
         d="m 151.161,868.968 c 0,0 -64.475,-26.162 -35.439,-99.612 v 0 c 29.036,-73.449 56.013,-80.309 85.049,-153.759 v 0 c 37.331,-94.435 -10.498,-178.049 25.913,-270.153 v 0 C 270.928,233.521 383.199,133.661 383.199,133.661 v 0 c 0,0 29.231,-12.56 58.378,-1.038 v 0 l -0.157,-0.362 c 29.147,11.523 41.887,40.676 41.887,40.676 v 0 c 0,0 13.642,149.635 -30.603,261.557 v 0 C 416.294,526.597 324.22,554.906 286.888,649.341 v 0 c -29.035,73.45 -14.041,96.902 -43.077,170.351 v 0 c -17.509,44.292 -47.595,53.085 -68.72,53.085 v 0 c -13.907,10e-4 -23.93,-3.809 -23.93,-3.809" /></clipPath></defs><g
     transform="matrix(1.3333333,0,0,-1.3333333,0,1440)"
     id="g10"><g
       id="g12"><g
         clip-path="url(#clipPath18)"
         id="g14"><g
           transform="translate(1773.2734,259.4932)"
           id="g20"><path
             id="path22"
             style="fill:#214031;fill-opacity:1;fill-rule:nonzero;stroke:none"
             d="m 0,0 h -1599.364 c -27.338,0 -49.5,22.162 -49.5,49.5 v 384.129 c 0,27.338 22.162,49.5 49.5,49.5 H 0 c 27.338,0 49.5,-22.162 49.5,-49.5 V 49.5 C 49.5,22.162 27.338,0 0,0" /></g><g
           transform="translate(634.2173,299.54)"
           id="g24"><path
             id="path26"
             style="fill:#ffffff;fill-opacity:1;fill-rule:nonzero;stroke:none"
             d="m 0,0 22.715,97.269 h 175.318 l 10.484,8.737 9.902,42.519 -5.825,7.573 H 101.928 l -57.08,73.387 27.376,118.821 73.388,59.409 H 385 L 362.285,310.446 H 192.791 l -10.484,-8.737 -9.902,-40.771 5.825,-7.572 H 289.478 L 345.976,179.395 318.601,59.41 245.211,0 Z" /></g><g
           transform="translate(1168.3203,547.6641)"
           id="g28"><path
             id="path30"
             style="fill:#ffffff;fill-opacity:1;fill-rule:nonzero;stroke:none"
             d="m 0,0 h 75.137 l 11.648,9.319 11.65,51.256 -5.825,7.572 H 15.727 Z m -36.111,-156.68 h 84.454 l 16.309,12.815 12.814,54.75 -8.737,11.067 h -86.785 z m -140.372,-91.444 94.358,407.715 H 177.647 L 225.991,96.104 205.022,4.077 159.009,-33.2 l 39.606,-53.002 -23.88,-104.26 -71.641,-57.662 z" /></g><g
           transform="translate(1380.3311,299.54)"
           id="g32"><path
             id="path34"
             style="fill:#ffffff;fill-opacity:1;fill-rule:nonzero;stroke:none"
             d="m 0,0 22.717,97.269 h 175.317 l 10.485,8.737 9.901,42.519 -5.825,7.573 H 101.93 l -57.08,73.387 27.375,118.821 73.388,59.409 H 385.001 L 362.286,310.446 H 192.792 l -10.484,-8.737 -9.902,-40.771 5.824,-7.572 H 289.479 L 345.977,179.395 318.602,59.41 245.213,0 Z" /></g><g
           transform="translate(545.7935,654.8789)"
           id="g36"><path
             id="path38"
             style="fill:#ffffff;fill-opacity:1;fill-rule:nonzero;stroke:none"
             d="m 0,0 c -88.401,0 -160.321,-71.92 -160.321,-160.321 0,-88.401 71.92,-160.321 160.321,-160.321 88.401,0 160.321,71.92 160.321,160.321 C 160.321,-71.92 88.401,0 0,0" /></g><g
           transform="translate(619.9897,567.3364)"
           id="g40"><path
             id="path42"
             style="fill:#214031;fill-opacity:1;fill-rule:nonzero;stroke:none"
             d="m 0,0 c -7.113,0 -14.022,3.754 -17.715,10.4 -2.624,4.723 -3.251,10.184 -1.767,15.379 1.485,5.195 4.903,9.5 9.627,12.123 9.747,5.417 22.085,1.892 27.501,-7.857 2.625,-4.723 3.252,-10.185 1.767,-15.38 C 17.929,9.471 14.511,5.165 9.787,2.542 V 2.541 C 6.685,0.818 3.32,0 0,0 m -51.978,-28.898 c -1.867,0 -3.745,0.261 -5.589,0.788 -5.198,1.485 -9.507,4.906 -12.131,9.632 -5.421,9.755 -1.893,22.1 7.862,27.52 4.726,2.625 10.192,3.251 15.39,1.768 5.197,-1.486 9.506,-4.906 12.131,-9.633 5.419,-9.753 1.892,-22.099 -7.864,-27.519 -3.048,-1.694 -6.405,-2.556 -9.799,-2.556 m 89.588,-96.644 c -1.867,0 -3.744,0.261 -5.588,0.789 -5.196,1.484 -9.503,4.904 -12.127,9.628 -5.418,9.751 -1.893,22.092 7.859,27.511 9.755,5.416 22.096,1.891 27.513,-7.862 2.625,-4.723 3.252,-10.187 1.766,-15.383 -1.484,-5.196 -4.904,-9.503 -9.627,-12.127 -3.048,-1.693 -6.404,-2.556 -9.796,-2.556 M -74.196,87.542 c -88.402,0 -160.321,-71.919 -160.321,-160.321 0,-88.4 71.919,-160.32 160.321,-160.32 88.401,0 160.321,71.92 160.321,160.32 0,88.402 -71.92,160.321 -160.321,160.321 m 0,-340.14 c -99.153,0 -179.82,80.667 -179.82,179.819 0,99.153 80.667,179.82 179.82,179.82 99.152,0 179.819,-80.667 179.819,-179.82 0,-99.152 -80.667,-179.819 -179.819,-179.819" /></g><g
           transform="translate(156.7046,237.5449)"
           id="g44"><path
             id="path46"
             style="fill:#ffffff;fill-opacity:1;fill-rule:nonzero;stroke:none"
             d="m 0,0 c 28.071,-13.938 58.256,-3.887 58.256,-3.887 0,0 120.291,90.039 173.814,197.834 44.045,88.706 3.435,176.055 48.595,267.007 35.125,70.74 62.584,75.301 97.709,146.042 35.124,70.74 -25.419,101.813 -25.419,101.813 0,0 -62.598,30.381 -97.723,-40.359 C 220.108,597.709 233.071,573.077 197.947,502.337 152.787,411.385 58.654,390.94 14.608,302.234 -38.915,194.439 -37.936,44.187 -37.936,44.187 c 0,0 10.238,-30.123 38.31,-44.061" /></g><g
           transform="translate(161.2896,246.1533)"
           id="g48"><path
             id="path50"
             style="fill:#214031;fill-opacity:1;fill-rule:nonzero;stroke:none"
             d="m 0,0 c 20.732,-10.162 43.386,-5.196 49.201,-3.642 13.401,10.328 120.75,95.029 169.552,193.317 20.918,42.13 21.854,83.702 22.846,127.714 1.014,45.027 2.062,91.587 25.75,139.293 18.068,36.389 34.345,55.975 50.088,74.916 15.718,18.911 30.564,36.775 47.62,71.125 29.834,60.087 -17.638,86.927 -21.054,88.757 -3.409,1.585 -54.746,24.2 -84.623,-35.975 -17.056,-34.35 -22.313,-56.974 -27.879,-80.926 -5.575,-23.99 -11.338,-48.796 -29.407,-85.186 C 178.407,441.688 141.949,412.709 106.69,384.686 72.227,357.293 39.674,331.42 18.755,289.289 -30.049,190.997 -32.637,54.271 -32.766,37.365 -30.497,31.816 -20.693,10.587 0.125,0.25 Z m 28.747,-25.75 c -11.234,0 -24.593,1.916 -37.668,8.409 l 0.125,0.25 c -31.125,15.597 -42.486,48.15 -42.955,49.531 l -0.508,1.497 -0.011,1.578 c -0.04,6.23 -0.373,153.822 53.562,262.446 22.85,46.02 58.647,74.474 93.266,101.989 35.132,27.924 68.317,54.3 90.073,98.115 17.055,34.35 22.312,56.974 27.877,80.926 5.575,23.99 11.339,48.796 29.407,85.187 38.97,78.485 109.997,45.139 110.711,44.793 l 0.195,-0.098 c 0.691,-0.354 68.652,-36.372 29.7,-114.822 C 364.452,557.662 348.175,538.075 332.433,519.134 316.714,500.223 301.868,482.36 284.812,448.009 263.057,404.195 262.103,361.816 261.093,316.95 260.097,272.738 259.067,227.023 236.216,181.002 182.282,72.379 64.501,-16.568 59.514,-20.301 l -1.264,-0.945 -1.498,-0.499 C 55.943,-22.014 44.416,-25.75 28.747,-25.75" /></g></g></g><g
       id="g52"><g
         clip-path="url(#clipPath58)"
         id="g54"><g
           transform="translate(463.5103,690.0684)"
           id="g60"><path
             id="path62"
             style="fill:#214031;fill-opacity:1;fill-rule:nonzero;stroke:none"
             d="m 0,0 -130.251,64.673 11.708,23.58 L 11.708,23.58 Z" /></g><g
           transform="translate(445.6694,654.1367)"
           id="g64"><path
             id="path66"
             style="fill:#214031;fill-opacity:1;fill-rule:nonzero;stroke:none"
             d="m 0,0 -130.252,64.674 11.709,23.58 L 11.708,23.58 Z" /></g></g></g><g
       id="g68"><g
         clip-path="url(#clipPath74)"
         id="g70"><g
           transform="translate(440.2544,131.8008)"
           id="g76"><path
             id="path78"
             style="fill:#ffffff;fill-opacity:1;fill-rule:nonzero;stroke:none"
             d="m 0,0 c 29.146,11.522 41.887,40.675 41.887,40.675 0,0 13.642,149.635 -30.603,261.557 -36.41,92.104 -128.484,120.413 -165.816,214.848 -29.036,73.449 -14.042,96.901 -43.077,170.351 -29.037,73.449 -92.65,49.276 -92.65,49.276 0,0 -64.475,-26.163 -35.439,-99.612 29.036,-73.449 56.013,-80.31 85.049,-153.76 37.332,-94.435 -10.498,-178.049 25.912,-270.152 C -170.492,101.26 -58.22,1.399 -58.22,1.399 c 0,0 29.23,-12.559 58.377,-1.037" /></g><g
           transform="translate(387.2368,141.6455)"
           id="g80"><path
             id="path82"
             style="fill:#214031;fill-opacity:1;fill-rule:nonzero;stroke:none"
             d="m 0,0 c 5.64,-2.033 27.974,-8.961 49.591,-0.417 l 0.101,-0.259 c 21.429,8.597 32.904,28.753 35.644,34.113 1.298,16.868 10.242,153.315 -30.101,255.367 -17.293,43.745 -47.548,72.27 -79.579,102.469 -32.77,30.897 -66.656,62.846 -86.237,112.378 -14.936,37.784 -18.589,62.987 -22.121,87.362 -3.526,24.336 -6.857,47.323 -20.957,82.988 -24.663,62.389 -76.38,45.092 -80.028,43.78 -3.462,-1.47 -54.625,-24.468 -29.926,-86.947 14.099,-35.666 27.386,-54.717 41.454,-74.888 14.089,-20.2 28.658,-41.088 43.595,-78.871 19.581,-49.533 16.699,-96.015 13.914,-140.968 -2.724,-43.939 -5.296,-85.441 11.998,-129.186 C -112.308,104.865 -12.472,11.41 0,0 m 26.569,-24.099 c -19.706,0 -34.708,6.305 -35.621,6.697 l -1.45,0.624 -1.18,1.049 c -4.654,4.141 -114.518,102.7 -159.104,215.482 -18.889,47.784 -16.061,93.424 -13.326,137.561 2.776,44.791 5.398,87.099 -12.586,132.593 -14.099,35.664 -27.386,54.715 -41.454,74.885 -14.089,20.2 -28.658,41.09 -43.595,78.875 -32.215,81.492 40.106,111.931 40.841,112.229 l 0.202,0.079 c 0.728,0.275 72.979,26.649 105.179,-54.805 14.936,-37.784 18.588,-62.987 22.121,-87.361 3.525,-24.337 6.857,-47.324 20.957,-82.99 17.983,-45.493 48.826,-74.571 81.479,-105.359 C 21.208,375.124 54.479,343.756 73.369,295.972 117.955,183.187 105.18,36.148 104.614,29.945 l -0.144,-1.574 -0.631,-1.444 C 103.253,25.585 89.113,-6.06 56.601,-18.911 l -0.102,0.259 c -10.367,-4.052 -20.668,-5.447 -29.93,-5.447" /></g></g></g><g
       id="g84"><g
         clip-path="url(#clipPath90)"
         id="g86"><g
           transform="translate(309.4849,662.6553)"
           id="g92"><path
             id="path94"
             style="fill:#214031;fill-opacity:1;fill-rule:nonzero;stroke:none"
             d="m 0,0 -135.24,-53.463 -9.679,24.484 135.24,53.462 z" /></g><g
           transform="translate(324.2334,625.3477)"
           id="g96"><path
             id="path98"
             style="fill:#214031;fill-opacity:1;fill-rule:nonzero;stroke:none"
             d="m 0,0 -135.24,-53.463 -9.679,24.484 135.24,53.462 z" /></g></g></g></g></svg>